<?xml version="1.0" encoding="UTF-8"?>
<svg version="1.1" xmlns="http://www.w3.org/2000/svg" width="126" height="115">
<path d="M0 0 C2.73828125 1.78515625 2.73828125 1.78515625 5 5 C5.61439726 9.12069884 5.47032101 13.15816551 5.3125 17.3125 C5.28994141 18.43462891 5.26738281 19.55675781 5.24414062 20.71289062 C5.18533776 23.47662536 5.10320401 26.23762554 5 29 C5.66 29 6.32 29 7 29 C10.18775747 34.65569873 12.22530135 39.43196127 12 46 C11.36743164 47.89794922 11.36743164 47.89794922 10.53515625 49.8671875 C7.85946706 57.47272629 8.52825772 65.64059084 8.47265625 73.60351562 C8.43978516 75.47620117 8.43978516 75.47620117 8.40625 77.38671875 C8.39916016 78.51295654 8.39207031 79.63919434 8.38476562 80.79956055 C7.94903285 84.42393936 6.72955206 86.81162531 5 90 C4.29241674 93.2366963 4.29241674 93.2366963 4 96 C5.98 96.33 7.96 96.66 10 97 C10.86097841 106.68122385 10.86097841 106.68122385 7.625 110.5625 C3.36922534 114.51429076 0.06991249 114.16447828 -5.5012207 114.19287109 C-6.38105621 114.20104858 -7.26089172 114.20922607 -8.16738892 114.21765137 C-11.08684605 114.24251862 -14.00625455 114.25902434 -16.92578125 114.2734375 C-18.41961366 114.28142302 -18.41961366 114.28142302 -19.9436245 114.28956985 C-25.21428025 114.31630658 -30.48491227 114.33568025 -35.75561523 114.35009766 C-41.20341693 114.36675139 -46.65061436 114.41153391 -52.09818745 114.4624691 C-56.28377489 114.49610139 -60.46921816 114.50767066 -64.65492821 114.51332474 C-66.66321623 114.52004779 -68.67149442 114.53529709 -70.67965126 114.55921555 C-73.49046918 114.59078525 -76.29964752 114.5909163 -79.1105957 114.58349609 C-79.94039444 114.59990143 -80.77019318 114.61630676 -81.62513733 114.63320923 C-85.98271406 114.58611324 -87.50405504 114.40992858 -90.99308777 111.52603149 C-91.6553688 110.6924411 -92.31764984 109.85885071 -93 109 C-93.33 108.67 -93.66 108.34 -94 108 C-94.07226502 106.14712498 -94.0838122 104.29166122 -94.0625 102.4375 C-94.05347656 101.42558594 -94.04445313 100.41367188 -94.03515625 99.37109375 C-94.02355469 98.58863281 -94.01195313 97.80617188 -94 97 C-91.525 96.505 -91.525 96.505 -89 96 C-89.00666183 95.19677811 -89.01332367 94.39355621 -89.02018738 93.56599426 C-89.08034997 85.9887557 -89.12600044 78.41163328 -89.15543652 70.83421803 C-89.17107878 66.93877264 -89.19229041 63.04352497 -89.22631836 59.14819336 C-89.25896368 55.38751475 -89.27686385 51.62702606 -89.28463173 47.86621666 C-89.290166 46.43290913 -89.30097321 44.99961174 -89.31719017 43.56638527 C-89.33903055 41.55583497 -89.34022597 39.54509272 -89.34057617 37.53442383 C-89.34723801 36.39080887 -89.35389984 35.24719391 -89.36076355 34.06892395 C-88.95359383 30.60523453 -88.08425014 28.77272055 -86 26 C-82.87133624 23.91422416 -82.32017682 23.76295216 -78.79833984 23.87158203 C-77.95250336 23.89044464 -77.10666687 23.90930725 -76.23519897 23.92874146 C-74.86193954 23.96788162 -74.86193954 23.96788162 -73.4609375 24.0078125 C-71.49742282 24.02652448 -69.5338756 24.0420392 -67.5703125 24.0546875 C-64.49257775 24.08095966 -61.42005418 24.12354851 -58.34375 24.22265625 C-42.49308195 24.69735074 -32.71823727 21.91467709 -21 11 C-18.27466301 8.35774123 -15.69672805 5.75087299 -13.375 2.75 C-9.65758131 -1.55437953 -5.25438593 -1.82844932 0 0 Z M-10 8 C-10.14497985 10.58064129 -10.18677545 13.04943884 -10.125 15.625 C-10.11597656 16.33140625 -10.10695313 17.0378125 -10.09765625 17.765625 C-10.07407603 19.51056098 -10.03820461 21.25532295 -10 23 C-7.03 23.33 -4.06 23.66 -1 24 C-0.94617894 21.37472811 -0.90641687 18.75055287 -0.875 16.125 C-0.85824219 15.37863281 -0.84148437 14.63226563 -0.82421875 13.86328125 C-0.8066041 11.90805539 -0.89679811 9.95257979 -1 8 C-2.82703227 5.7508092 -2.82703227 5.7508092 -5.5 5.75 C-8.17296773 5.7508092 -8.17296773 5.7508092 -10 8 Z M-20.71875 18.59765625 C-21.48268066 19.14760254 -22.24661133 19.69754883 -23.03369141 20.26416016 C-24.68665941 21.46944251 -26.33474629 22.68144587 -27.97802734 23.89990234 C-31.32380471 26.37675047 -34.54120463 28.74816733 -38.1953125 30.75390625 C-41.55889534 32.65200525 -43.40134384 34.18705814 -44.63720703 37.9296875 C-45.97767572 43.71710787 -46.25425308 49.41937764 -44 55 C-39.87962111 60.16118407 -34.03197914 63.35996808 -28.37792969 66.60400391 C-24.91524445 68.63682056 -21.69322554 70.96830263 -18.4375 73.3125 C-15.48495794 75.73870115 -15.48495794 75.73870115 -12 77 C-12 73.04 -12 69.08 -12 65 C-13.216875 64.443125 -14.43375 63.88625 -15.6875 63.3125 C-20.89893764 60.66995123 -24.47589682 57.70207408 -26.8125 52.25 C-28.97113441 45.58693193 -28.82296651 40.16849647 -25.9375 33.75 C-24.09725104 30.31275338 -22.51439586 28.39007107 -19.1875 26.375 C-15.8555336 24.43648604 -15.8555336 24.43648604 -15.5546875 21.92578125 C-15.52070837 19.43906094 -15.52070837 19.43906094 -16 16 C-17.84910906 16 -19.27314221 17.55235248 -20.71875 18.59765625 Z M-20.8125 35.0625 C-23.30677722 39.1321102 -23.72767741 43.35278748 -23 48 C-21.22139917 52.30850718 -18.97520098 55.26859926 -15.25 58.0625 C-10.85123523 59.33137445 -7.38315529 59.36973603 -3 58 C0.92328738 55.71141569 3.40246613 53.14527324 5.5 49.125 C6.28070534 44.24559165 6.41123884 40.21890168 3.73046875 36.00390625 C1.12538616 32.83164112 -1.14837569 30.56127027 -5 29 C-12.03181622 28.31950166 -15.97566968 29.55852067 -20.8125 35.0625 Z M-83 32 C-83.29357279 34.79303953 -83.29357279 34.79303953 -83.22705078 38.10205078 C-83.22689972 39.38322784 -83.22674866 40.66440491 -83.22659302 41.98440552 C-83.21637895 43.38804274 -83.20594695 44.7916784 -83.1953125 46.1953125 C-83.19158291 47.62734785 -83.18873569 49.05938575 -83.18673706 50.49142456 C-83.17909627 54.26278717 -83.15944408 58.03399604 -83.1373291 61.80529785 C-83.11688019 65.65272949 -83.1077374 69.50018594 -83.09765625 73.34765625 C-83.0761985 80.89850764 -83.04205732 88.44923229 -83 96 C-79.32019798 96.77606592 -75.91307916 97.14495488 -72.1484375 97.2109375 C-71.05015625 97.23929687 -69.951875 97.26765625 -68.8203125 97.296875 C-66.51579224 97.3491317 -64.21107624 97.39335015 -61.90625 97.4296875 C-60.81054688 97.460625 -59.71484375 97.4915625 -58.5859375 97.5234375 C-57.5861084 97.54325684 -56.5862793 97.56307617 -55.55615234 97.58349609 C-52.58412996 98.06776259 -51.98957934 98.86623302 -50 101 C-47.18872957 101.21714241 -44.6116655 101.28284276 -41.8125 101.1875 C-41.06291016 101.17396484 -40.31332031 101.16042969 -39.54101562 101.14648438 C-37.69370233 101.11118539 -35.84675934 101.05737917 -34 101 C-33.34 99.68 -32.68 98.36 -32 97 C-22.1 96.67 -12.2 96.34 -2 96 C-2 94.68 -2 93.36 -2 92 C-2.804375 91.67 -3.60875 91.34 -4.4375 91 C-7.38913959 89.52760438 -9.58319402 87.67361021 -12 85.4375 C-17.34341943 80.54160313 -23.18788458 76.45951392 -29.11669922 72.32177734 C-31.06765762 70.95251512 -33.00601463 69.56694859 -34.94140625 68.17578125 C-35.57925049 67.7173584 -36.21709473 67.25893555 -36.87426758 66.78662109 C-38.10233174 65.90333559 -39.33004726 65.0195651 -40.55737305 64.13525391 C-43.67097171 61.89374784 -43.67097171 61.89374784 -47 60 C-46.855625 60.7734375 -46.71125 61.546875 -46.5625 62.34375 C-45.49838795 68.31460095 -44.65661785 73.93358205 -45 80 C-46.56941198 81.56941198 -48.14134994 81.2449847 -50.3125 81.3125 C-51.48232422 81.36857422 -51.48232422 81.36857422 -52.67578125 81.42578125 C-56.02416051 80.81238068 -57.01107732 79.76048752 -59 77 C-59.81324563 74.18644133 -60.22492715 71.32614569 -60.6875 68.4375 C-61.60214776 62.68289149 -61.60214776 62.68289149 -65.11328125 58.39453125 C-67.47909617 57.70727332 -67.47909617 57.70727332 -69.875 57.390625 C-72 57 -72 57 -74.5 54.5 C-77.05984261 50.23359565 -77.33354683 46.91981571 -77 42 C-75.54829301 38.40529697 -74.06997933 35.4304003 -71 33 C-68.14493951 32.04831317 -66.09062718 31.8099054 -63.11328125 31.68359375 C-62.17548828 31.64169922 -61.23769531 31.59980469 -60.27148438 31.55664062 C-58.80678711 31.49766602 -58.80678711 31.49766602 -57.3125 31.4375 C-56.32443359 31.39431641 -55.33636719 31.35113281 -54.31835938 31.30664062 C-51.87904454 31.20058346 -49.43962887 31.09852286 -47 31 C-47 30.67 -47 30.34 -47 30 C-51.80548597 29.95063117 -56.61082494 29.91429557 -61.41650391 29.89013672 C-63.05194672 29.88006746 -64.68737149 29.86641119 -66.32275391 29.84912109 C-68.6709437 29.82491295 -71.01889588 29.81352643 -73.3671875 29.8046875 C-74.10057343 29.79436493 -74.83395935 29.78404236 -75.58956909 29.77340698 C-79.75064296 29.633169 -79.75064296 29.633169 -83 32 Z M-59 37 C-59 42.61 -59 48.22 -59 54 C-56.03 54 -53.06 54 -50 54 C-50 48.39 -50 42.78 -50 37 C-52.97 37 -55.94 37 -59 37 Z M-71 40 C-72.03654877 42.70556797 -72.29674967 45.12208815 -72 48 C-70.42983048 51.04881825 -70.42983048 51.04881825 -68 53 C-67.01 53 -66.02 53 -65 53 C-65 47.72 -65 42.44 -65 37 C-67.57946096 37 -69.07882 38.463056 -71 40 Z M-57 60 C-56.44854729 65.23880078 -55.57077907 69.97350697 -54 75 C-52.68 75.33 -51.36 75.66 -50 76 C-50.47986031 70.43109483 -51.29915181 65.32932432 -53 60 C-54.32 60 -55.64 60 -57 60 Z M-6 65 C-6.05379226 67.95857409 -6.09357093 70.91617721 -6.125 73.875 C-6.14175781 74.71675781 -6.15851563 75.55851562 -6.17578125 76.42578125 C-6.18222656 77.23144531 -6.18867187 78.03710938 -6.1953125 78.8671875 C-6.20578613 79.61081543 -6.21625977 80.35444336 -6.22705078 81.12060547 C-6.1665597 83.24490235 -6.1665597 83.24490235 -4 85 C-0.69316534 84.71016731 -0.69316534 84.71016731 2 83 C2.08685603 81.43827255 2.10702219 79.87270656 2.09765625 78.30859375 C2.09443359 77.36435547 2.09121094 76.42011719 2.08789062 75.44726562 C2.07951172 74.45404297 2.07113281 73.46082031 2.0625 72.4375 C2.05798828 71.44041016 2.05347656 70.44332031 2.04882812 69.41601562 C2.03700007 66.94395151 2.02051849 64.47200482 2 62 C-0.60939857 62 -3.6401989 63.97026861 -6 65 Z M-88 103 C-87.88693303 104.95894361 -87.88693303 104.95894361 -87 107 C-82.88690948 109.21475269 -78.92938642 109.28509973 -74.36743164 109.25878906 C-73.23962532 109.26404602 -73.23962532 109.26404602 -72.08903503 109.26940918 C-69.61264716 109.27818521 -67.13654685 109.27239141 -64.66015625 109.265625 C-62.93289638 109.26697298 -61.20563687 109.26891462 -59.4783783 109.27142334 C-55.86128115 109.27436913 -52.2442829 109.27009502 -48.62719727 109.26074219 C-43.99923088 109.24935653 -39.3714967 109.25590494 -34.74353886 109.26788712 C-31.17726403 109.27512773 -27.61104389 109.27280753 -24.04476738 109.26763153 C-22.33878998 109.26630068 -20.63280755 109.26792292 -18.92683601 109.27259064 C-16.53841199 109.27769116 -14.15035938 109.26989603 -11.76196289 109.25878906 C-11.06203217 109.26283752 -10.36210144 109.26688599 -9.64096069 109.27105713 C-5.40135228 109.23468265 -1.90443241 108.67633554 2 107 C3.42055068 104.99863756 3.42055068 104.99863756 4 103 C-0.52065428 102.950623 -5.04115217 102.91429177 -9.56201172 102.89013672 C-11.10045098 102.88006882 -12.63887107 102.86641354 -14.17724609 102.84912109 C-16.38644133 102.82490683 -18.59538395 102.81352509 -20.8046875 102.8046875 C-21.83914505 102.78920364 -21.83914505 102.78920364 -22.89450073 102.77340698 C-24.59800906 102.77300522 -26.30085943 102.87808974 -28 103 C-28.66 103.66 -29.32 104.32 -30 105 C-32.3984375 105.25878906 -32.3984375 105.25878906 -35.375 105.265625 C-36.44234375 105.26820312 -37.5096875 105.27078125 -38.609375 105.2734375 C-39.72828125 105.26570313 -40.8471875 105.25796875 -42 105.25 C-43.11890625 105.25773437 -44.2378125 105.26546875 -45.390625 105.2734375 C-46.45796875 105.27085938 -47.5253125 105.26828125 -48.625 105.265625 C-50.09839844 105.26224121 -50.09839844 105.26224121 -51.6015625 105.25878906 C-54 105 -54 105 -56 103 C-58.43744897 102.82511746 -60.7593608 102.76822595 -63.1953125 102.8046875 C-64.25647781 102.80893234 -64.25647781 102.80893234 -65.33908081 102.81326294 C-67.6012251 102.82446863 -69.86297515 102.84957321 -72.125 102.875 C-73.65754637 102.88502933 -75.19009894 102.89415526 -76.72265625 102.90234375 C-80.48192301 102.92440914 -84.24089464 102.95894104 -88 103 Z " fill="#FBD870" transform="translate(94,1)"/>
<path d="M0 0 C3.08917348 0.3432415 4.77105979 0.82193539 7.25 2.75 C9.22010525 5.28299247 9.83622705 6.80642754 10 10 C9.01 11.485 9.01 11.485 8 13 C8.99 14.485 8.99 14.485 10 16 C9.87687707 21.540532 7.82774653 24.26127084 4 28 C0 28 0 28 -2.75 25.375 C-5.18761998 22.22174846 -5.44435422 19.99918794 -5 16 C-5 14.35379123 -5.01598905 12.70627514 -5.10546875 11.0625 C-5.32763672 5.4765625 -5.32763672 5.4765625 -3.625 3 C-2 2 -2 2 0 2 C0 1.34 0 0.68 0 0 Z M0 8 C0.33 8.99 0.66 9.98 1 11 C2.32 10.67 3.64 10.34 5 10 C4.67 9.34 4.34 8.68 4 8 C2.68 8 1.36 8 0 8 Z M0 17 C0.33 17.99 0.66 18.98 1 20 C1.99 19.67 2.98 19.34 4 19 C4 18.34 4 17.68 4 17 C2.68 17 1.36 17 0 17 Z " fill="#F7D66C" transform="translate(83,31)"/>
<path d="M0 0 C5.22751486 0.26137574 8.33403051 2.29762471 12.4609375 5.234375 C14 7 14 7 14.2265625 9.703125 C14.15179688 10.46109375 14.07703125 11.2190625 14 12 C12.359375 12.74609375 12.359375 12.74609375 10 13 C7.203125 11.34765625 7.203125 11.34765625 4.25 9.0625 C3.26515625 8.31097656 2.2803125 7.55945313 1.265625 6.78515625 C0.51796875 6.19605469 -0.2296875 5.60695313 -1 5 C-0.67 3.35 -0.34 1.7 0 0 Z " fill="#F9D06E" transform="translate(108,63)"/>
<path d="M0 0 C1.18851563 0.00902344 2.37703125 0.01804688 3.6015625 0.02734375 C4.51679687 0.03894531 5.43203125 0.05054688 6.375 0.0625 C7.035 1.3825 7.695 2.7025 8.375 4.0625 C7.25390625 5.54296875 7.25390625 5.54296875 5.375 7.0625 C2.52734375 7.42578125 2.52734375 7.42578125 -0.6875 7.375 C-1.75097656 7.37113281 -2.81445312 7.36726563 -3.91015625 7.36328125 C-6.625 7.0625 -6.625 7.0625 -8.625 5.0625 C-8.625 3.7425 -8.625 2.4225 -8.625 1.0625 C-5.74084117 -0.37957941 -3.20778472 -0.03144887 0 0 Z " fill="#F9CD6D" transform="translate(117.625,40.9375)"/>
<path d="M0 0 C0.265625 2.265625 0.265625 2.265625 0 5 C-1.828125 6.984375 -1.828125 6.984375 -4.25 8.75 C-5.03890625 9.34296875 -5.8278125 9.9359375 -6.640625 10.546875 C-8.85947991 11.91345452 -10.4111561 12.75660442 -13 13 C-13.66 12.34 -14.32 11.68 -15 11 C-14.83561819 8.15854299 -14.11309822 7.11496761 -12.109375 5.078125 C-10.94148438 4.17320313 -10.94148438 4.17320313 -9.75 3.25 C-8.98171875 2.63640625 -8.2134375 2.0228125 -7.421875 1.390625 C-4.68797988 -0.17915994 -3.09942932 -0.28576299 0 0 Z " fill="#FBD66F" transform="translate(122,13)"/>
</svg>
